# AST/ASF file generated using VICON BodyLanguage
# -----------------------------------------------
:version 1.10
:name VICON
:units
  mass 1.0
  length 0.45
  angle deg
:documentation
   .ast/.asf automatically generated from VICON data using
   VICON BodyBuilder and BodyLanguage model FoxedUp or BRILLIANT.MOD
:root
   order TX TY TZ RX RY RZ
   axis XYZ
   position 0 0 0  
   orientation 0 0 0 
:bonedata
  begin
     id 1 
     name lhipjoint
     direction 0.573633 -0.743009 0.344793 
     length 2.46257 
     axis 0 0 0  XYZ
  end
  begin
     id 2 
     name lfemur
     direction 0.34202 -0.939693 0  
     length 7.3842  
     axis 0 0 20  XYZ
    dof rx ry rz
    limits (-160.0 20.0)
           (-70.0 70.0)
           (-60.0 70.0)
  end
  begin
     id 3 
     name ltibia
     direction 0.34202 -0.939693 0   
     length 7.50407   
     axis 0 0 20   XYZ
    dof rx
    limits (-10.0 170.0)
  end
  begin
     id 4 
     name lfoot
     direction 0.110749 -0.304281 0.946123   
     length 1.95925   
     axis -90 7.62852e-016 20   XYZ
    dof rx rz
    limits (-45.0 90.0)
           (-70.0 20.0)
  end
  begin
     id 5 
     name ltoes
     direction 1.53554e-011 -4.21843e-011 1   
     length 0.978318   
     axis -90 7.62852e-016 20   XYZ
    dof rx
    limits (-90.0 20.0)
  end
  begin
     id 6 
     name rhipjoint
     direction -0.488109 -0.791693 0.367385   
     length 2.31113  
     axis 0 0 0  XYZ 
  end
  begin
     id 7 
     name rfemur
     direction -0.34202 -0.939693 0   
     length 7.40965   
     axis 0 0 -20   XYZ
    dof rx ry rz
    limits (-160.0 20.0)
           (-70.0 70.0)
           (-70.0 60.0)
  end
  begin
     id 8 
     name rtibia
     direction -0.34202 -0.939693 0   
     length 7.55548   
     axis 0 0 -20   XYZ
    dof rx
    limits (-10.0 170.0)
 end
 begin
     id 9 
     name rfoot
     direction -0.127594 -0.350561 0.927808   
     length 2.07199  
     axis -90 -7.62852e-016 -20   XYZ
    dof rx rz
    limits (-45.0 90.0)
           (-20.0 70.0)
  end
  begin
     id 10 
     name rtoes
     direction -1.53542e-011 -4.21909e-011 1   
     length 1.02667   
     axis -90 -7.62852e-016 -20   XYZ
    dof rx
    limits (-90.0 20.0)
  end
  begin
     id 11 
     name lowerback
     direction -0.0103342 0.997298 -0.0727278   
     length 2.02836   
     axis 0 0 0   XYZ
    dof rx ry rz
    limits (-20.0 45.0)
           (-30.0 30.0)
           (-30.0 30.0)
  end
  begin
     id 12 
     name upperback
     direction 0.0171146 0.999786 -0.011606   
     length 2.03179   
     axis 0 0 0   XYZ
    dof rx ry rz
    limits (-20.0 45.0)
           (-30.0 30.0)
           (-30.0 30.0)
  end
  begin
     id 13 
     name thorax
     direction 0.0216927 0.999513 0.0224343   
     length 2.03882   
     axis 0 0 0   XYZ
    dof rx ry rz
    limits (-20.0 45.0)
           (-30.0 30.0)
           (-30.0 30.0)
  end
  begin
     id 14 
     name lowerneck
     direction 0.000989287 0.993907 0.110221   
     length 1.75428   
     axis 0 0 0   XYZ
    dof rx ry rz
    limits (-20.0 45.0)
           (-30.0 30.0)
           (-30.0 30.0)
  end
  begin
     id 15 
     name upperneck
     direction -0.0172474 0.994813 -0.100253   
     length 1.77058   
     axis 0 0 0   XYZ
    dof rx ry rz
    limits (-20.0 45.0)
           (-30.0 30.0)
           (-30.0 30.0)
  end
  begin
     id 16
     name head
     direction -0.00486455 0.99894 -0.0457663  
     length 1.77427  
     axis 0 0 0   XYZ
    dof rx ry rz
    limits (-20.0 45.0)
           (-30.0 30.0)
           (-30.0 30.0)
  end
  begin
     id 17 
     name lclavicle
     direction 0.927314 0.333734 -0.169441  
     length 3.97584  
     axis 0 0 0   XYZ
    dof ry rz
    limits (-20.0 10.0)
           (0.0 20.0)
  end
  begin
     id 18 
     name lhumerus
     direction 1 -4.48965e-011 -3.25313e-028   
     length 4.76468   
     axis 180 -30 -90   XYZ
    dof rx ry rz
    limits (-60.0 90.0)
           (-90.0 90.0)
           (-90.0 90.0)
  end
  begin
     id 19
     name lradius
     direction 1 -4.48969e-011 -2.8465e-028   
     length 3.52712   
     axis -180 -30 -90   XYZ
    dof rx
    limits (-10.0 170.0)
  end
  begin
     id 20
     name lwrist
     direction 1 -4.4896e-011 -7.78665e-028   
     length 1.76356   
     axis 1.91374e-015 90 90   XYZ
    dof ry
    limits (-180.0 0.0)
 end
  begin
     id 21 
     name lhand
     direction 1 -4.48959e-011 -1.55733e-027   
     length 0.859564   
     axis 9.9371e-016 90 90   XYZ
    dof rx rz
    limits (-90.0 90.0)
           (-45.0 45.0)
  end
  begin
     id 22 
     name lfingers
     direction 1 -4.48965e-011 -3.11466e-027   
     length 0.693002   
     axis 1.98742e-015 90 90   XYZ
    dof rx
    limits (0.0 90.0)
  end
  begin
     id 23
     name lthumb
     direction 0.707107 -6.34948e-011 0.707107   
     length 0.995017   
     axis -90 45 2.85299e-015   XYZ
    dof rx rz
    limits (-45.0 45.0)
           (-45.0 45.0)
  end
  begin
     id 24 
     name rclavicle
     direction -0.899388 0.348209 -0.264294   
     length 3.68366  
     axis 0 0 0   XYZ 
    dof ry rz
    limits (-10.0 20.0)
           (-20.0 0.0)
  end
  begin
     id 25 
     name rhumerus
     direction -1 -4.48965e-011 -3.01536e-027  
     length 4.90577   
     axis 180 30 90   XYZ
    dof rx ry rz
    limits (-90.0 60.0)
           (-90.0 90.0)
           (-90.0 90.0)
  end
  begin
     id 26 
     name rradius
     direction -1 -4.48966e-011 3.93291e-027   
     length 3.42692   
     axis -180 30 90   XYZ
    dof rx
    limits (-10.0 170.0)
  end
  begin
     id 27 
     name rwrist
     direction -1 -4.48969e-011 -7.78665e-028   
     length 1.71346   
     axis 1.91374e-015 -90 -90   XYZ
    dof ry
    limits (-180.0 0.0)
  end
  begin
     id 28
     name rhand
     direction -1 -4.48967e-011 -1.55733e-027   
     length 0.740957   
     axis 9.9371e-016 -90 -90   XYZ
    dof rx rz
    limits (-90.0 90.0)
           (-45.0 45.0)
  end
  begin
     id 29
     name rfingers
     direction -1 -4.48949e-011 -3.11466e-027   
     length 0.597378   
     axis 1.98742e-015 -90 -90   XYZ
    dof rx
    limits (0.0 90.0)
  end
  begin
     id 30
     name rthumb
     direction -0.707107 -6.34931e-011 0.707107   
     length 0.857719   
     axis -90 -45 -2.85299e-015   XYZ
    dof rx rz
    limits (-45.0 45.0)
           (-45.0 45.0)
  end
:hierarchy
  begin
    root lhipjoint rhipjoint lowerback
    lhipjoint lfemur
    lfemur ltibia
    ltibia lfoot
    lfoot ltoes
    rhipjoint rfemur
    rfemur rtibia
    rtibia rfoot
    rfoot rtoes
    lowerback upperback
    upperback thorax
    thorax lowerneck lclavicle rclavicle
    lowerneck upperneck
    upperneck head
    lclavicle lhumerus
    lhumerus lradius
    lradius lwrist
    lwrist lhand lthumb
    lhand lfingers
    rclavicle rhumerus
    rhumerus rradius
    rradius rwrist
    rwrist rhand rthumb
    rhand rfingers
  end

#!OML:ASF E:\I on waltz\AllaLogoMonkeySwing\Project 1\Capture day 1\Session 1\Subject1.ASF
:FULLY-SPECIFIED
:DEGREES
32
root -15.3739 17.2184 -27.8113 13.3832 34.253 4.00313
lowerback 10.5784 -1.19508 -7.21238
upperback 1.61994 -2.32252 1.25555
thorax -3.8913 -1.03919 5.7043
lowerneck -12.429 0.268709 -0.404502
upperneck 14.0348 0.629128 -1.0467
head 6.31114 0.203752 -0.209974
rclavicle 1.12711e-013 -4.6118e-014
rhumerus -34.3397 -21.0252 -76.9557
rradius 24.112
rwrist 3.59023
rhand -6.00974 -37.9465
rfingers 7.12502
rthumb 19.823 -66.9556
lclavicle 1.12711e-013 -4.6118e-014
lhumerus -36.623 13.4563 91.0758
lradius 41.0849
lwrist -2.41183
lhand -3.28339 -12.3186
lfingers 7.12502
lthumb 22.442 16.3976
rfemur -44.7886 -10.046 19.3838
rtibia 58.6436
rfoot -22.6127 -5.59129
rtoes 10.2867
lfemur 1.11669 2.75159 -27.358
ltibia 16.591
lfoot -28.3977 -1.96774
ltoes -19.8149
33
root -15.2697 17.1737 -27.6193 13.7289 34.2 4.15084
lowerback 10.5734 -1.16947 -7.36747
upperback 1.62727 -2.30936 1.16167
thorax -3.88042 -1.03154 5.69067
lowerneck -12.18 0.183847 -0.344489
upperneck 13.5864 0.462016 -0.845099
head 6.12486 0.144751 -0.170763
rclavicle -2.62893e-014 1.96797e-014
rhumerus -34.5647 -21.272 -76.8333
rradius 23.8939
rwrist 3.78103
rhand -6.2196 -37.8978
rfingers 7.12502
rthumb 19.6212 -66.9276
lclavicle -2.62893e-014 1.96797e-014
lhumerus -36.4868 12.0806 91.7601
lradius 41.5948
lwrist -1.39306
lhand -3.85322 -11.4108
lfingers 7.12502
lthumb 21.8949 17.3703
rfemur -45.6074 -9.99559 19.3794
rtibia 58.8673
rfoot -22.6432 -5.2608
rtoes 10.1949
lfemur 2.08799 2.53196 -27.4698
ltibia 15.6834
lfoot -28.2025 -1.15416
ltoes -23.1589
34
root -15.1646 17.1184 -27.4177 14.0687 34.1369 4.27366
lowerback 10.5882 -1.11156 -7.55757
upperback 1.62434 -2.25705 1.12069
thorax -3.89374 -1.00251 5.74931
lowerneck -12.0453 0.0835583 -0.370797
upperneck 13.2588 0.29386 -0.638184
head 5.9972 0.0794874 -0.115537
rclavicle -8.13526e-014 1.96797e-014
rhumerus -34.8033 -21.2937 -76.7146
rradius 23.8949
rwrist 3.65019
rhand -6.14087 -37.8542
rfingers 7.12502
rthumb 19.6969 -66.8763
lclavicle -8.13526e-014 1.96797e-014
lhumerus -36.4431 11.1888 92.3385
lradius 42.1086
lwrist -0.30339
lhand -4.16252 -11.1951
lfingers 7.12502
lthumb 21.5979 17.6205
rfemur -46.3964 -9.89865 19.391
rtibia 59.35
rfoot -22.7738 -4.75562
rtoes 10.6143
lfemur 3.26107 1.7022 -27.5744
ltibia 14.7031
lfoot -28.4118 -1.32
ltoes -17.8373
35
root -15.055 17.0594 -27.207 14.2936 34.1065 4.21531
lowerback 10.6371 -1.06568 -7.53135
upperback 1.63538 -2.19668 1.11618
thorax -3.91969 -0.972025 5.72374
lowerneck -11.9588 -0.00743482 -0.296987
upperneck 12.9266 0.148046 -0.605543
head 5.87728 0.015795 -0.129687
rclavicle 8.89064e-014 -9.24349e-015
rhumerus -35.0315 -21.379 -76.6199
rradius 24.0297
rwrist 3.68596
rhand -6.07982 -37.7748
rfingers 7.12502
rthumb 19.7556 -66.7909
lclavicle 8.89064e-014 -9.24349e-015
lhumerus -36.375 10.5162 92.8465
lradius 42.6119
lwrist 0.698032
lhand -4.61403 -11.0866
lfingers 7.12502
lthumb 21.1642 17.7781
rfemur -47.0523 -9.77837 19.5633
rtibia 59.9808
rfoot -22.7531 -4.54825
rtoes 11.2263
lfemur 4.37592 1.09454 -27.5138
ltibia 13.921
lfoot -28.4178 -1.24707
ltoes -14.7414
36
root -14.9411 16.9931 -26.9864 14.3322 34.1619 3.92588
lowerback 10.7513 -1.06638 -7.27297
upperback 1.67617 -2.17233 1.1725
thorax -3.95153 -0.9627 5.63717
lowerneck -11.9169 -0.00617074 -0.262259
upperneck 12.5256 0.132392 -0.561371
head 5.74379 0.013853 -0.122596
rclavicle 3.65267e-014 -9.54166e-015
rhumerus -35.2098 -21.3182 -76.6503
rradius 24.2761
rwrist 3.66319
rhand -6.29633 -37.5773
rfingers 7.12502
rthumb 19.5475 -66.6147
lclavicle 3.65267e-014 -9.54166e-015
lhumerus -36.2711 9.95935 93.2025
lradius 43.0821
lwrist 0.924072
lhand -4.81528 -10.6898
lfingers 7.12502
lthumb 20.9709 18.1965
rfemur -47.486 -9.6568 19.9236
rtibia 60.7597
rfoot -22.783 -4.23291
rtoes 11.6033
lfemur 5.21067 1.69549 -27.198
ltibia 13.2977
lfoot -28.1862 0.583642
ltoes -25.4743
37
root -14.8196 16.9529 -26.7512 14.4402 34.2392 3.73588
lowerback 10.8706 -1.07361 -7.13051
upperback 1.72307 -2.16912 1.23637
thorax -3.97159 -0.962859 5.62721
lowerneck -12.0188 0.0143508 -0.194
upperneck 12.2257 0.154312 -0.626131
head 5.66684 0.0229483 -0.152231
rclavicle 3.59303e-014 5.96354e-016
rhumerus -35.3125 -20.8637 -76.8401
rradius 24.7067
rwrist 3.22866
rhand -6.47584 -37.3691
rfingers 7.12502
rthumb 19.3749 -66.4239
lclavicle 3.59303e-014 5.96354e-016
lhumerus -36.1456 9.59254 93.4742
lradius 43.4706
lwrist 1.03477
lhand -4.89525 -10.5665
lfingers 7.12502
lthumb 20.894 18.3283
rfemur -47.6171 -9.55563 20.1809
rtibia 61.5529
rfoot -22.9413 -3.80862
rtoes 11.5281
lfemur 6.23259 0.996619 -26.9328
ltibia 13.0222
lfoot -27.7278 0.526181
ltoes -25.6155
38
root -14.6965 16.9036 -26.5034 14.7296 34.3002 3.70874
lowerback 10.9156 -1.07091 -7.18297
upperback 1.72105 -2.17216 1.29584
thorax -3.9938 -0.962298 5.72253
lowerneck -12.1217 -0.00138726 -0.155473
upperneck 11.9879 0.128237 -0.656939
head 5.60948 0.00978332 -0.1703
rclavicle -7.09661e-014 5.66536e-015
rhumerus -35.4594 -20.1335 -77.1607
rradius 25.3618
rwrist 2.44998
rhand -6.66374 -37.6016
rfingers 7.12502
rthumb 19.1942 -66.6745
lclavicle -7.09661e-014 5.66536e-015
lhumerus -36.045 9.22845 93.7957
lradius 43.782
lwrist 1.71956
lhand -5.38027 -10.5234
lfingers 7.12502
lthumb 20.428 18.4221
rfemur -47.7241 -9.39282 20.3169
rtibia 62.4971
rfoot -22.9663 -3.54867
rtoes 12.6848
lfemur 6.70838 0.953703 -26.8085
ltibia 13.3645
lfoot -27.6316 1.32741
ltoes -29.368
